{"title":"BA Pass (2013) DVDScrRip Xvid [1CD] ICTV - Hindi","uid":8906164,"size":727528998,"categoryP":"video","categoryS":"movies","magnet":"?xt=urn:btih:f75881fa7b61cf49bcbb10557cab86ce3b63d061&amp;dn=BA+Pass+%282013%29+DVDScrRip+Xvid+%5B1CD%5D+ICTV+-+Hindi&amp;tr=udp%3A%2F%2Ftracker.openbittorrent.com%3A80&amp;tr=udp%3A%2F%2Fopen.demonii.com%3A1337&amp;tr=udp%3A%2F%2Ftracker.coppersurfer.tk%3A6969&amp;tr=udp%3A%2F%2Fexodus.desync.com%3A6969","seeders":1,"leechers":0,"uploader":"SJonam","files":1,"time":1378910425,"description":" &lt;a href=&quot;http://picturestack.com/194/211/pLB1Z5w.jpg&quot; rel=&quot;nofollow&quot; target=&quot;_NEW&quot;&gt;http://picturestack.com/194/211/pLB1Z5w.jpg&lt;/a&gt; &lt;a href=&quot;\nhttp://desibbrg.org/images/72077963408895802777.jpg&quot; rel=&quot;nofollow&quot; target=&quot;_NEW&quot;&gt;\nhttp://desibbrg.org/images/72077963408895802777.jpg&lt;/a&gt; &lt;a href=&quot;\nhttp://desibbrg.org/images/82843650425951326719.jpg&quot; rel=&quot;nofollow&quot; target=&quot;_NEW&quot;&gt;\nhttp://desibbrg.org/images/82843650425951326719.jpg&lt;/a&gt; &lt;a href=&quot;\nhttp://desibbrg.org/images/63007732899770717838.jpg&quot; rel=&quot;nofollow&quot; target=&quot;_NEW&quot;&gt;\nhttp://desibbrg.org/images/63007732899770717838.jpg&lt;/a&gt; &lt;a href=&quot;\nhttp://desibbrg.org/images/75874703037057597609.jpg&quot; rel=&quot;nofollow&quot; target=&quot;_NEW&quot;&gt;\nhttp://desibbrg.org/images/75874703037057597609.jpg&lt;/a&gt; &lt;a href=&quot;\nhttp://desibbrg.org/images/47099524902074018318.jpg&quot; rel=&quot;nofollow&quot; target=&quot;_NEW&quot;&gt;\nhttp://desibbrg.org/images/47099524902074018318.jpg&lt;/a&gt;\n\nMedia Info - \nGeneral\nComplete name : BA Pass (2013) Non Retail DVDRip - Xvid [1CD] Team IcTv Exclusive (1).avi\nFormat : AVI\nFormat/Info : Audio Video Interleave\nFile size : 694 MiB\nDuration : 1h 34mn\nOverall bit rate : 1 027 Kbps\n\nVideo\nFormat : MPEG-4 Visual\nFormat profile : Advanced Simple@L5\nFormat settings, BVOP : 2\nFormat settings, QPel : No\nFormat settings, GMC : No warppoints\nFormat settings, Matrix : Default (H.263)\nCodec ID : XVID\nCodec ID/Hint : XviD\nDuration : 1h 34mn\nBit rate : 939 Kbps\nWidth : 640 pixels\nHeight : 336 pixels\nDisplay aspect ratio : 1.905\nFrame rate : 29.970 fps\nColor space : YUV\nChroma subsampling : 4:2:0\nBit depth : 8 bits\nScan type : Progressive\nCompression mode : Lossy\nBits/(Pixel*Frame) : 0.146\nStream size : 635 MiB (91%)\nWriting library : XviD 1.2.1 (UTC 2008-12-04)\n\nAudio\nFormat : MPEG Audio\nFormat version : Version 1\nFormat profile : Layer 3\nMode : Joint stereo\nMode extension : MS Stereo\nCodec ID : 55\nCodec ID/Hint : MP3\nDuration : 1h 34mn\nBit rate mode : Constant\nBit rate : 80.0 Kbps\nChannel(s) : 2 channels\nSampling rate : 32.0 KHz\nCompression mode : Lossy\nStream size : 54.1 MiB (8%)\nAlignment : Aligned on interleaves\nInterleave, duration : 133 ms (4.00 video frames)\nInterleave, preload duration : 216 ms\nTitle : VTS_01_1 T80 2_0ch 192Kbps DELAY 0ms\nWriting library : LAME3.99r\nEncoding settings : -m j -V 4 -q 2 -lowpass 13.5 -b 80\n\nSample - http://www.sendspace.com/file/bczegj\nRipper : MasterMind\n\nSeeding 24x7... Extreme Seeding...\n\n\nEnjoy!\n","torrent":{"xt":"urn:btih:f75881fa7b61cf49bcbb10557cab86ce3b63d061","amp;dn":"BA+Pass+%282013%29+DVDScrRip+Xvid+%5B1CD%5D+ICTV+-+Hindi","amp;tr":["udp%3A%2F%2Ftracker.openbittorrent.com%3A80","udp%3A%2F%2Fopen.demonii.com%3A1337","udp%3A%2F%2Ftracker.coppersurfer.tk%3A6969","udp%3A%2F%2Fexodus.desync.com%3A6969"],"infoHash":"f75881fa7b61cf49bcbb10557cab86ce3b63d061","infoHashBuffer":{"type":"Buffer","data":[247,88,129,250,123,97,207,73,188,187,16,85,124,171,134,206,59,99,208,97]},"announce":[],"urlList":[]}}